<?xml version="1.0" encoding="UTF-8" standalone="no"?>
<!DOCTYPE svg PUBLIC "-//W3C//DTD SVG 1.1//EN"
 "http://www.w3.org/Graphics/SVG/1.1/DTD/svg11.dtd">
<!-- Generated by graphviz version 2.49.3 (20211023.0002)
 -->
<!-- Title: py Pages: 1 -->
<svg width="499pt" height="620pt"
 viewBox="0.00 0.00 498.50 620.00" xmlns="http://www.w3.org/2000/svg" xmlns:xlink="http://www.w3.org/1999/xlink">
<g id="graph0" class="graph" transform="scale(1 1) rotate(0) translate(4 616)">
<title>py</title>
<polygon fill="white" stroke="transparent" points="-4,4 -4,-616 494.5,-616 494.5,4 -4,4"/>
<!-- &#45;2 -->
<g id="node1" class="node">
<title>&#45;2</title>
<polygon fill="none" stroke="black" points="56.5,-540 2.5,-540 2.5,-504 56.5,-504 56.5,-540"/>
<text text-anchor="middle" x="29.5" y="-518.3" font-family="Courier New" font-size="14.00">&#45;2</text>
</g>
<!-- Error -->
<g id="node11" class="node">
<title>Error</title>
<polygon fill="none" stroke="black" points="59,-468 0,-468 0,-432 59,-432 59,-468"/>
<text text-anchor="middle" x="29.5" y="-446.3" font-family="Courier New" font-size="14.00">Error</text>
</g>
<!-- &#45;2&#45;&gt;Error -->
<g id="edge5" class="edge">
<title>&#45;2&#45;&gt;Error</title>
<path fill="none" stroke="black" d="M29.5,-503.7C29.5,-495.98 29.5,-486.71 29.5,-478.11"/>
<polygon fill="black" stroke="black" points="33,-478.1 29.5,-468.1 26,-478.1 33,-478.1"/>
</g>
<!-- &#45;3.6 -->
<g id="node2" class="node">
<title>&#45;3.6</title>
<polygon fill="none" stroke="black" points="128.5,-540 74.5,-540 74.5,-504 128.5,-504 128.5,-540"/>
<text text-anchor="middle" x="101.5" y="-518.3" font-family="Courier New" font-size="14.00">&#45;3.6</text>
</g>
<!-- $PATH -->
<g id="node12" class="node">
<title>$PATH</title>
<polygon fill="none" stroke="black" points="386,-108 327,-108 327,-72 386,-72 386,-108"/>
<text text-anchor="middle" x="356.5" y="-86.3" font-family="Courier New" font-size="14.00">$PATH</text>
</g>
<!-- &#45;3.6&#45;&gt;$PATH -->
<g id="edge6" class="edge">
<title>&#45;3.6&#45;&gt;$PATH</title>
<path fill="none" stroke="black" d="M102.09,-503.95C102.97,-477.3 104.5,-424.12 104.5,-379 104.5,-379 104.5,-379 104.5,-233 104.5,-186.5 122.2,-171.77 159.5,-144 206.21,-109.22 274.2,-97.25 316.85,-93.14"/>
<polygon fill="black" stroke="black" points="317.2,-96.62 326.86,-92.28 316.6,-89.65 317.2,-96.62"/>
</g>
<!-- &#45;3 -->
<g id="node3" class="node">
<title>&#45;3</title>
<polygon fill="none" stroke="black" points="200.5,-540 146.5,-540 146.5,-504 200.5,-504 200.5,-540"/>
<text text-anchor="middle" x="173.5" y="-518.3" font-family="Courier New" font-size="14.00">&#45;3</text>
</g>
<!-- &#45;3&#45;&gt;$PATH -->
<g id="edge7" class="edge">
<title>&#45;3&#45;&gt;$PATH</title>
<path fill="none" stroke="black" d="M168.04,-503.71C160.15,-477.18 146.5,-424.67 146.5,-379 146.5,-379 146.5,-379 146.5,-233 146.5,-151.66 255.94,-113.76 316.81,-98.97"/>
<polygon fill="black" stroke="black" points="317.91,-102.3 326.86,-96.63 316.32,-95.49 317.91,-102.3"/>
</g>
<!-- &lt;nothing&gt; -->
<g id="node4" class="node">
<title>&lt;nothing&gt;</title>
<polygon fill="none" stroke="black" points="346,-540 219,-540 219,-504 346,-504 346,-540"/>
<text text-anchor="middle" x="282.5" y="-518.3" font-family="Times,serif" font-size="14.00">No option specified</text>
</g>
<!-- $VIRTUAL_ENV -->
<g id="node6" class="node">
<title>$VIRTUAL_ENV</title>
<polygon fill="none" stroke="black" points="282.5,-468 174.92,-450 282.5,-432 390.08,-450 282.5,-468"/>
<text text-anchor="middle" x="282.5" y="-446.3" font-family="Courier New" font-size="14.00">$VIRTUAL_ENV</text>
</g>
<!-- &lt;nothing&gt;&#45;&gt;$VIRTUAL_ENV -->
<g id="edge8" class="edge">
<title>&lt;nothing&gt;&#45;&gt;$VIRTUAL_ENV</title>
<path fill="none" stroke="black" d="M282.5,-503.7C282.5,-495.98 282.5,-486.71 282.5,-478.11"/>
<polygon fill="black" stroke="black" points="286,-478.1 282.5,-468.1 279,-478.1 286,-478.1"/>
</g>
<!-- py ... -->
<g id="node5" class="node">
<title>py ...</title>
<polygon fill="none" stroke="black" stroke-width="2" points="171,-612 104,-612 104,-576 171,-576 171,-612"/>
<text text-anchor="middle" x="137.5" y="-590.3" font-family="Courier New" font-size="14.00">py ...</text>
</g>
<!-- py ...&#45;&gt;&#45;2 -->
<g id="edge1" class="edge">
<title>py ...&#45;&gt;&#45;2</title>
<path fill="none" stroke="black" d="M111.08,-575.88C97.09,-566.81 79.72,-555.55 64.61,-545.76"/>
<polygon fill="black" stroke="black" points="66.32,-542.69 56.02,-540.19 62.51,-548.57 66.32,-542.69"/>
</g>
<!-- py ...&#45;&gt;&#45;3.6 -->
<g id="edge2" class="edge">
<title>py ...&#45;&gt;&#45;3.6</title>
<path fill="none" stroke="black" d="M128.6,-575.7C124.5,-567.73 119.55,-558.1 115.01,-549.26"/>
<polygon fill="black" stroke="black" points="117.98,-547.4 110.3,-540.1 111.76,-550.6 117.98,-547.4"/>
</g>
<!-- py ...&#45;&gt;&#45;3 -->
<g id="edge3" class="edge">
<title>py ...&#45;&gt;&#45;3</title>
<path fill="none" stroke="black" d="M146.4,-575.7C150.5,-567.73 155.45,-558.1 159.99,-549.26"/>
<polygon fill="black" stroke="black" points="163.24,-550.6 164.7,-540.1 157.02,-547.4 163.24,-550.6"/>
</g>
<!-- py ...&#45;&gt;&lt;nothing&gt; -->
<g id="edge4" class="edge">
<title>py ...&#45;&gt;&lt;nothing&gt;</title>
<path fill="none" stroke="black" d="M171.13,-576.76C191.03,-567.16 216.47,-554.88 238.01,-544.48"/>
<polygon fill="black" stroke="black" points="239.8,-547.5 247.28,-540 236.76,-541.2 239.8,-547.5"/>
</g>
<!-- .venv -->
<g id="node7" class="node">
<title>.venv</title>
<polygon fill="none" stroke="black" points="282.5,-396 228.04,-378 282.5,-360 336.96,-378 282.5,-396"/>
<text text-anchor="middle" x="282.5" y="-374.3" font-family="Courier New" font-size="14.00">.venv</text>
</g>
<!-- $VIRTUAL_ENV&#45;&gt;.venv -->
<g id="edge10" class="edge">
<title>$VIRTUAL_ENV&#45;&gt;.venv</title>
<path fill="none" stroke="black" d="M282.5,-431.7C282.5,-423.98 282.5,-414.71 282.5,-406.11"/>
<polygon fill="black" stroke="black" points="286,-406.1 282.5,-396.1 279,-406.1 286,-406.1"/>
</g>
<!-- Execute -->
<g id="node13" class="node">
<title>Execute</title>
<polygon fill="none" stroke="black" stroke-width="2" points="409,-36 304,-36 304,0 409,0 409,-36"/>
<text text-anchor="middle" x="356.5" y="-14.3" font-family="Times,serif" font-size="14.00">Execute Python</text>
</g>
<!-- $VIRTUAL_ENV&#45;&gt;Execute -->
<g id="edge9" class="edge">
<title>$VIRTUAL_ENV&#45;&gt;Execute</title>
<path fill="none" stroke="black" d="M327.38,-439.5C388.52,-423.61 490.5,-385.37 490.5,-307 490.5,-307 490.5,-307 490.5,-161 490.5,-106.8 438.22,-64.9 398.97,-41.09"/>
<polygon fill="black" stroke="black" points="400.71,-38.05 390.31,-36 397.16,-44.09 400.71,-38.05"/>
</g>
<!-- venv -->
<g id="node8" class="node">
<title>venv</title>
<polygon fill="none" stroke="black" points="282.5,-324 236.58,-306 282.5,-288 328.42,-306 282.5,-324"/>
<text text-anchor="middle" x="282.5" y="-302.3" font-family="Courier New" font-size="14.00">venv</text>
</g>
<!-- .venv&#45;&gt;venv -->
<g id="edge12" class="edge">
<title>.venv&#45;&gt;venv</title>
<path fill="none" stroke="black" d="M282.5,-359.7C282.5,-351.98 282.5,-342.71 282.5,-334.11"/>
<polygon fill="black" stroke="black" points="286,-334.1 282.5,-324.1 279,-334.1 286,-334.1"/>
</g>
<!-- .venv&#45;&gt;Execute -->
<g id="edge11" class="edge">
<title>.venv&#45;&gt;Execute</title>
<path fill="none" stroke="black" d="M309.06,-368.66C356.88,-351.79 452.5,-308.83 452.5,-235 452.5,-235 452.5,-235 452.5,-161 452.5,-112.85 414.16,-68.85 385.94,-42.98"/>
<polygon fill="black" stroke="black" points="388.08,-40.2 378.28,-36.17 383.43,-45.43 388.08,-40.2"/>
</g>
<!-- shebang -->
<g id="node9" class="node">
<title>shebang</title>
<polygon fill="none" stroke="black" points="282.5,-252 220.83,-234 282.5,-216 344.17,-234 282.5,-252"/>
<text text-anchor="middle" x="282.5" y="-230.3" font-family="Courier New" font-size="14.00">#! ...</text>
</g>
<!-- venv&#45;&gt;shebang -->
<g id="edge14" class="edge">
<title>venv&#45;&gt;shebang</title>
<path fill="none" stroke="black" d="M282.5,-287.7C282.5,-279.98 282.5,-270.71 282.5,-262.11"/>
<polygon fill="black" stroke="black" points="286,-262.1 282.5,-252.1 279,-262.1 286,-262.1"/>
</g>
<!-- venv&#45;&gt;Execute -->
<g id="edge13" class="edge">
<title>venv&#45;&gt;Execute</title>
<path fill="none" stroke="black" d="M301.53,-295.38C317.64,-286.29 340.17,-271.21 353.5,-252 391.51,-197.23 386.07,-174 395.5,-108 397.76,-92.16 400.49,-87.2 395.5,-72 392.19,-61.91 386.13,-52.15 379.77,-43.82"/>
<polygon fill="black" stroke="black" points="382.42,-41.54 373.39,-36.01 377,-45.97 382.42,-41.54"/>
</g>
<!-- $PY_PYTHON -->
<g id="node10" class="node">
<title>$PY_PYTHON</title>
<ellipse fill="none" stroke="black" cx="282.5" cy="-162" rx="65.79" ry="18"/>
<text text-anchor="middle" x="282.5" y="-158.3" font-family="Courier New" font-size="14.00">$PY_PYTHON</text>
</g>
<!-- shebang&#45;&gt;$PY_PYTHON -->
<g id="edge15" class="edge">
<title>shebang&#45;&gt;$PY_PYTHON</title>
<path fill="none" stroke="black" d="M282.5,-215.7C282.5,-207.98 282.5,-198.71 282.5,-190.11"/>
<polygon fill="black" stroke="black" points="286,-190.1 282.5,-180.1 279,-190.1 286,-190.1"/>
</g>
<!-- shebang&#45;&gt;$PATH -->
<g id="edge16" class="edge">
<title>shebang&#45;&gt;$PATH</title>
<path fill="none" stroke="black" d="M307.31,-222.97C324.84,-214.41 347.02,-200.25 357.5,-180 367.35,-160.99 366.24,-136.48 363.15,-118"/>
<polygon fill="black" stroke="black" points="366.58,-117.3 361.23,-108.16 359.71,-118.65 366.58,-117.3"/>
</g>
<!-- $PY_PYTHON&#45;&gt;$PATH -->
<g id="edge17" class="edge">
<title>$PY_PYTHON&#45;&gt;$PATH</title>
<path fill="none" stroke="black" d="M300.04,-144.41C309.23,-135.71 320.67,-124.89 330.84,-115.27"/>
<polygon fill="black" stroke="black" points="333.46,-117.62 338.32,-108.2 328.65,-112.53 333.46,-117.62"/>
</g>
<!-- $PATH&#45;&gt;Execute -->
<g id="edge18" class="edge">
<title>$PATH&#45;&gt;Execute</title>
<path fill="none" stroke="black" d="M356.5,-71.7C356.5,-63.98 356.5,-54.71 356.5,-46.11"/>
<polygon fill="black" stroke="black" points="360,-46.1 356.5,-36.1 353,-46.1 360,-46.1"/>
</g>
</g>
</svg>
